<?xml version="1.0" encoding="UTF-8"?>
<svg width="327px" height="641px" viewBox="0 0 327 641" version="1.1" xmlns="http://www.w3.org/2000/svg" xmlns:xlink="http://www.w3.org/1999/xlink">
    <!-- Generator: Sketch 59.1 (86144) - https://sketch.com -->
    <title>Combined Shape Copy 13</title>
    <desc>Created with Sketch.</desc>
    <g id="Page-1" stroke="none" stroke-width="1" fill="none" fill-rule="evenodd">
        <g id="Artboard-Copy" transform="translate(-427.000000, -270.000000)" fill="#FFFFFF">
            <path d="M754,911 L427,911 L427,270 L754,270 L754,911 Z M734.181818,583.992386 L734.181818,289.522843 L446.818182,289.522843 L446.818182,583.992386 L523.106039,583.99215 C526.426781,550.207117 555.332521,523.796954 590.5,523.796954 C625.667479,523.796954 654.573219,550.207117 657.893961,583.99215 L734.181818,583.992386 Z M734.181818,891.477157 L734.181818,597.007614 L657.893961,597.00785 C654.573219,630.792883 625.667479,657.203046 590.5,657.203046 C555.332521,657.203046 526.426781,630.792883 523.106039,597.00785 L446.818182,597.007614 L446.818182,891.477157 L734.181818,891.477157 Z M658.212121,431.063452 C658.212121,467.902527 627.896372,497.766497 590.5,497.766497 C553.103628,497.766497 522.787879,467.902527 522.787879,431.063452 C522.787879,394.224377 553.103628,364.360406 590.5,364.360406 C627.896372,364.360406 658.212121,394.224377 658.212121,431.063452 Z M658.212121,749.936548 C658.212121,786.775623 627.896372,816.639594 590.5,816.639594 C553.103628,816.639594 522.787879,786.775623 522.787879,749.936548 C522.787879,713.097473 553.103628,683.233503 590.5,683.233503 C627.896372,683.233503 658.212121,713.097473 658.212121,749.936548 Z M646.651515,431.063452 C646.651515,400.513975 621.511625,375.748731 590.5,375.748731 C559.488375,375.748731 534.348485,400.513975 534.348485,431.063452 C534.348485,461.612929 559.488375,486.378173 590.5,486.378173 C621.511625,486.378173 646.651515,461.612929 646.651515,431.063452 Z M646.651515,749.936548 C646.651515,719.387071 621.511625,694.621827 590.5,694.621827 C559.488375,694.621827 534.348485,719.387071 534.348485,749.936548 C534.348485,780.486025 559.488375,805.251269 590.5,805.251269 C621.511625,805.251269 646.651515,780.486025 646.651515,749.936548 Z M646.651515,590.5 C646.651515,559.950523 621.511625,535.185279 590.5,535.185279 C559.488375,535.185279 534.348485,559.950523 534.348485,590.5 C534.348485,621.049477 559.488375,645.814721 590.5,645.814721 C621.511625,645.814721 646.651515,621.049477 646.651515,590.5 Z" id="Combined-Shape-Copy-13"></path>
        </g>
    </g>
</svg>